<?xml version="1.0" encoding="UTF-8" standalone="no"?>
<svg
   viewBox="0 0 210 180"
   version="1.1"
   id="svg8"
   sodipodi:docname="PwP_logo.svg"
   inkscape:version="1.3.2 (091e20e, 2023-11-25, custom)"
   width="210"
   height="180"
   inkscape:export-filename="PwP_logo.png"
   inkscape:export-xdpi="95.7"
   inkscape:export-ydpi="95.7"
   xmlns:inkscape="http://www.inkscape.org/namespaces/inkscape"
   xmlns:sodipodi="http://sodipodi.sourceforge.net/DTD/sodipodi-0.dtd"
   xmlns="http://www.w3.org/2000/svg"
   xmlns:svg="http://www.w3.org/2000/svg">
  <defs
     id="defs8">
    <rect
       x="-228.46634"
       y="-34.594273"
       width="449.00482"
       height="161.43994"
       id="rect9" />
    <rect
       x="-228.46634"
       y="-34.594273"
       width="449.00482"
       height="161.43994"
       id="rect9-4" />
    <rect
       x="-228.46634"
       y="-34.594273"
       width="449.00482"
       height="161.43994"
       id="rect9-8" />
  </defs>
  <sodipodi:namedview
     id="namedview8"
     pagecolor="#ffffff"
     bordercolor="#666666"
     borderopacity="1.0"
     inkscape:showpageshadow="2"
     inkscape:pageopacity="0.0"
     inkscape:pagecheckerboard="0"
     inkscape:deskcolor="#d1d1d1"
     inkscape:zoom="2.7750258"
     inkscape:cx="118.37728"
     inkscape:cy="105.40443"
     inkscape:window-width="1920"
     inkscape:window-height="1001"
     inkscape:window-x="-9"
     inkscape:window-y="840"
     inkscape:window-maximized="1"
     inkscape:current-layer="svg8" />
  <path
     d="M 162.08984,146.94241 C 131.24733,181.95601 77.765965,187.29147 40.320445,159.09017 2.8719847,130.89004 -5.4672553,79.002217 21.331805,40.943573 48.130565,2.8849252 100.70933,-8.0512978 141.0525,16.03964"
     id="path2"
     style="fill:#ffffff;fill-opacity:0;stroke:#ffffff;stroke-width:3.33098;stroke-linecap:round;stroke-miterlimit:0;stroke-opacity:1" />
  <path
     d="m 52.325306,33.009526 c 26.789431,-17.87089 63.282474,-15.806698 88.124054,4.983027 24.84262,20.790632 31.50464,54.844717 16.08879,82.231637 -15.41589,27.38942 -48.8583,40.91585 -80.759584,32.66419"
     id="path3"
     style="fill:#ffffff;fill-opacity:0;stroke:#ffffff;stroke-width:3.51609;stroke-linecap:round;stroke-miterlimit:0;stroke-opacity:1" />
  <path
     d="m 175.41671,51.024947 0.26267,-22.157794 c 0,0 -0.39403,-4.431677 3.28559,-4.431677 3.54852,0 2.89117,4.431677 2.89117,4.431677 l -0.13136,22.157794 c 0,0 -0.39452,2.21589 2.6285,2.34624 3.02264,0.13035 2.49661,-2.476564 2.49661,-2.476564 l -0.13135,-21.766917 c 0,0 -0.26268,-4.692554 2.8917,-4.692554 3.15382,0 2.49662,4.822845 2.49662,4.822845 v 22.28808 c 0,0 0.98588,1.92248 3.1544,1.82485 2.16853,-0.0981 2.5296,-1.85757 2.59552,-1.80875 l 0.29569,-22.174006 c 0,0 0,-4.692554 2.75982,-4.822845 2.75987,-0.130357 2.75987,4.822845 2.75987,4.822845 l -0.13135,23.461296 c 0,0 1.47159,18.95415 -7.51357,20.22877 -7.95308,1.12832 3.1379,67.409593 0.17256,69.381643 -2.80515,1.86562 -3.50725,2.19373 -6.13578,2.32408 -2.6285,0.13035 -5.19986,-0.80424 -6.87891,-2.69249 -3.09369,-3.47896 6.73889,-68.559213 0.79221,-69.399333 -7.74851,-1.09713 -8.69209,-21.796983 -8.56062,-21.66669 z"
     id="path4"
     style="fill:#ffffff;fill-opacity:1;fill-rule:evenodd;stroke:#000000;stroke-width:1.73417;stroke-opacity:1" />
  <text
     xml:space="preserve"
     id="text8"
     style="font-style:normal;font-weight:normal;font-size:40px;line-height:1.25;font-family:sans-serif;white-space:pre;shape-inside:url(#rect9);display:inline;fill:#ffffff;fill-opacity:1;stroke:none"
     transform="matrix(0.45962956,0,0,0.45962956,176.49022,93.810147)"><tspan
       x="-228.4668"
       y="1.8994627"
       id="tspan3"><tspan
         style="font-family:'Matura MT Script Capitals';-inkscape-font-specification:'Matura MT Script Capitals'"
         id="tspan1">with</tspan></tspan></text>
  <text
     xml:space="preserve"
     id="text8-8"
     style="font-style:normal;font-weight:normal;font-size:40px;line-height:1.25;font-family:sans-serif;white-space:pre;shape-inside:url(#rect9-4);display:inline;fill:#ffffff;fill-opacity:1;stroke:none"
     transform="matrix(0.97979553,0,0,0.97979553,255.37421,76.377697)"><tspan
       x="-228.4668"
       y="1.8994627"
       id="tspan5"><tspan
         style="font-family:'Matura MT Script Capitals';-inkscape-font-specification:'Matura MT Script Capitals'"
         id="tspan4">Plates</tspan></tspan></text>
  <text
     xml:space="preserve"
     id="text8-9"
     style="font-style:normal;font-weight:normal;font-size:40px;line-height:1.25;font-family:sans-serif;white-space:pre;shape-inside:url(#rect9-8);display:inline;fill:#ffffff;fill-opacity:1;stroke:none"
     transform="matrix(0.82959122,0,0,0.82959122,211.97315,116.41744)"><tspan
       x="-228.4668"
       y="1.8994627"
       id="tspan7"><tspan
         style="font-family:'Matura MT Script Capitals';-inkscape-font-specification:'Matura MT Script Capitals'"
         id="tspan6">Purpose</tspan></tspan></text>
</svg>
